<?xml version="1.0" encoding="UTF-8"?>
<svg width="425px" height="85px" viewBox="0 0 425 85" version="1.1" xmlns="http://www.w3.org/2000/svg" xmlns:xlink="http://www.w3.org/1999/xlink">
    <!-- Generator: Sketch 43.2 (39069) - http://www.bohemiancoding.com/sketch -->
    <title>logo</title>
    <desc>Created with Sketch.</desc>
    <defs></defs>
    <g id="Page-1" stroke="none" stroke-width="1" fill="none" fill-rule="evenodd">
        <g id="logo" fill-rule="nonzero">
            <path d="M93.9115854,54.7166581 L126.90604,13.6306569 L94.4257847,13.6306569 L94.4257847,4.29292929 L139.761022,4.29292929 L139.761022,13.9702106 L106.595168,54.886435 L140.275222,54.886435 L140.275222,64.3939394 L93.9115854,64.3939394 L93.9115854,54.7166581 Z M145.568151,23.1818182 L155.871181,23.1818182 L155.871181,64.3939394 L145.568151,64.3939394 L145.568151,23.1818182 Z M143.850979,9.44444444 C143.850979,7.83061296 144.450311,6.42548765 145.648992,5.22902637 C146.847673,4.0325651 148.366909,3.43434343 150.206745,3.43434343 C152.046581,3.43434343 153.593692,4.00474084 154.848126,5.14555275 C156.10256,6.28636466 156.729767,7.71931423 156.729767,9.44444444 C156.729767,11.1695747 156.10256,12.6025242 154.848126,13.7433361 C153.593692,14.8841481 152.046581,15.4545455 150.206745,15.4545455 C148.366909,15.4545455 146.847673,14.8563238 145.648992,13.6598625 C144.450311,12.4634012 143.850979,11.0582759 143.850979,9.44444444 Z M170.762747,23.518702 L170.762747,29.2398783 L171.016835,29.2398783 C171.525014,28.4428946 172.18846,27.6316911 173.007193,26.8062436 C173.825926,25.9807962 174.828153,25.2407509 176.013904,24.5860857 C177.199656,23.9314204 178.540664,23.3906181 180.036969,22.9636625 C181.533274,22.5367069 183.213063,22.3232323 185.076386,22.3232323 C187.956068,22.3232323 190.609852,22.8782663 193.037819,23.9883508 C195.465785,25.0984354 197.554935,26.6212208 199.305329,28.5567528 C201.055724,30.4922848 202.410848,32.7693472 203.370742,35.3880081 C204.330636,38.0066691 204.810575,40.8245338 204.810575,43.8416866 C204.810575,46.8588395 204.344751,49.6909358 203.41309,52.3380604 C202.481428,54.9851851 201.154536,57.2907107 199.432374,59.2547065 C197.710211,61.2187022 195.621062,62.7841826 193.164863,63.9511945 C190.708664,65.1182065 187.927837,65.7017037 184.822298,65.7017037 C181.942616,65.7017037 179.302948,65.1039748 176.903213,63.9084992 C174.503479,62.7130235 172.654299,61.0906166 171.35562,59.0412297 L171.186227,59.0412297 L171.186227,85 L161.022696,85 L161.022696,23.518702 L170.762747,23.518702 Z M194.507545,44.1313131 C194.507545,42.5286115 194.263409,40.9402436 193.775131,39.3661616 C193.286853,37.7920797 192.554447,36.3754272 191.57789,35.1161616 C190.601333,33.8568961 189.366295,32.840913 187.872738,32.0681818 C186.379181,31.2954507 184.62715,30.9090909 182.616592,30.9090909 C180.720924,30.9090909 179.026336,31.3097603 177.532779,32.1111111 C176.039222,32.9124619 174.761101,33.9427546 173.698378,35.2020202 C172.635655,36.4612858 171.831444,37.8922479 171.285721,39.4949495 C170.739998,41.0976511 170.467141,42.7003287 170.467141,44.3030303 C170.467141,45.9057319 170.739998,47.4940999 171.285721,49.0681818 C171.831444,50.6422638 172.635655,52.0589163 173.698378,53.3181818 C174.761101,54.5774474 176.039222,55.5934305 177.532779,56.3661616 C179.026336,57.1388928 180.720924,57.5252525 182.616592,57.5252525 C184.62715,57.5252525 186.379181,57.1245831 187.872738,56.3232323 C189.366295,55.5218815 190.601333,54.4915888 191.57789,53.2323232 C192.554447,51.9730577 193.286853,50.5420956 193.775131,48.9393939 C194.263409,47.3366923 194.507545,45.7340147 194.507545,44.1313131 Z M208.96209,4.29292929 L232.523131,4.29292929 C234.799571,4.29292929 237.047523,4.56173997 239.267052,5.0993694 C241.486581,5.63699883 243.464209,6.51417052 245.199995,7.7309108 C246.935781,8.94765108 248.344307,10.5180714 249.425617,12.4422188 C250.506926,14.3663662 251.047572,16.6866268 251.047572,19.4030703 C251.047572,22.7986245 250.0801,25.5999148 248.145125,27.8070251 C246.210151,30.0141353 243.677649,31.5987036 240.547543,32.5607773 L240.547543,32.7305541 C244.360581,33.2398873 247.49064,34.711272 249.937813,37.1447526 C252.384987,39.5782332 253.608555,42.8322572 253.608555,46.9069223 C253.608555,50.1892915 252.954088,52.9481379 251.645135,55.1835445 C250.336182,57.418951 248.61465,59.2157382 246.480487,60.5739599 C244.346324,61.9321816 241.899187,62.9083889 239.139003,63.5026109 C236.378819,64.0968329 233.575994,64.3939394 230.730443,64.3939394 L208.96209,64.3939394 L208.96209,4.29292929 Z M219.265121,28.3333333 L228.841381,28.3333333 C232.432497,28.3333333 235.168544,27.6334062 237.049605,26.233531 C238.930665,24.8336557 239.871181,22.8458627 239.871181,20.2700922 C239.871181,17.5823318 238.902165,15.67853 236.964102,14.5586298 C235.02604,13.4387296 232.004988,12.8787879 227.900856,12.8787879 L219.265121,12.8787879 L219.265121,28.3333333 Z M219.265121,54.9494949 L228.93134,54.9494949 C230.300015,54.9494949 231.782724,54.8522451 233.379512,54.6577425 C234.976299,54.4632398 236.444752,54.0603476 237.784913,53.4490536 C239.125074,52.8377597 240.237106,51.9486182 241.121042,50.7816024 C242.004978,49.6145867 242.446939,48.058589 242.446939,46.1135628 C242.446939,43.0015208 241.363421,40.8342384 239.196352,39.6116505 C237.029283,38.3890626 233.750215,37.7777778 229.359049,37.7777778 L219.265121,37.7777778 L219.265121,54.9494949 Z M256.184313,43.6188658 C256.184313,40.4076034 256.768759,37.492159 257.93767,34.8724449 C259.106581,32.2527309 260.688863,30.0133315 262.684564,28.1541796 C264.680265,26.2950277 267.046561,24.8584319 269.783523,23.844349 C272.520485,22.8302661 275.428463,22.3232323 278.507545,22.3232323 C281.586627,22.3232323 284.494605,22.8302661 287.231567,23.844349 C289.968528,24.8584319 292.334824,26.2950277 294.330526,28.1541796 C296.326227,30.0133315 297.908509,32.2527309 299.07742,34.8724449 C300.246331,37.492159 300.830777,40.4076034 300.830777,43.6188658 C300.830777,46.8301282 300.246331,49.759657 299.07742,52.40754 C297.908509,55.055423 296.326227,57.3229909 294.330526,59.2103118 C292.334824,61.0976327 289.968528,62.5764813 287.231567,63.6469021 C284.494605,64.7173229 281.586627,65.2525253 278.507545,65.2525253 C275.428463,65.2525253 272.520485,64.7173229 269.783523,63.6469021 C267.046561,62.5764813 264.680265,61.0976327 262.684564,59.2103118 C260.688863,57.3229909 259.106581,55.055423 257.93767,52.40754 C256.768759,49.759657 256.184313,46.8301282 256.184313,43.6188658 Z M266.487343,44.1313131 C266.487343,45.7340147 266.732357,47.3366923 267.222391,48.9393939 C267.712426,50.5420956 268.447467,51.9730577 269.427536,53.2323232 C270.407606,54.4915888 271.647086,55.5218815 273.146016,56.3232323 C274.644946,57.1245831 276.432104,57.5252525 278.507545,57.5252525 C280.582986,57.5252525 282.370144,57.1245831 283.869074,56.3232323 C285.368003,55.5218815 286.607484,54.4915888 287.587554,53.2323232 C288.567623,51.9730577 289.302664,50.5420956 289.792699,48.9393939 C290.282733,47.3366923 290.527747,45.7340147 290.527747,44.1313131 C290.527747,42.5286115 290.282733,40.9402436 289.792699,39.3661616 C289.302664,37.7920797 288.567623,36.3754272 287.587554,35.1161616 C286.607484,33.8568961 285.368003,32.840913 283.869074,32.0681818 C282.370144,31.2954507 280.582986,30.9090909 278.507545,30.9090909 C276.432104,30.9090909 274.644946,31.2954507 273.146016,32.0681818 C271.647086,32.840913 270.407606,33.8568961 269.427536,35.1161616 C268.447467,36.3754272 267.712426,37.7920797 267.222391,39.3661616 C266.732357,40.9402436 266.487343,42.5286115 266.487343,44.1313131 Z M303.547949,43.6188658 C303.547949,40.4076034 304.132396,37.492159 305.301306,34.8724449 C306.470217,32.2527309 308.052499,30.0133315 310.048201,28.1541796 C312.043902,26.2950277 314.410198,24.8584319 317.147159,23.844349 C319.884121,22.8302661 322.792099,22.3232323 325.871181,22.3232323 C328.950263,22.3232323 331.858241,22.8302661 334.595203,23.844349 C337.332165,24.8584319 339.698461,26.2950277 341.694162,28.1541796 C343.689863,30.0133315 345.272146,32.2527309 346.441056,34.8724449 C347.609967,37.492159 348.194414,40.4076034 348.194414,43.6188658 C348.194414,46.8301282 347.609967,49.759657 346.441056,52.40754 C345.272146,55.055423 343.689863,57.3229909 341.694162,59.2103118 C339.698461,61.0976327 337.332165,62.5764813 334.595203,63.6469021 C331.858241,64.7173229 328.950263,65.2525253 325.871181,65.2525253 C322.792099,65.2525253 319.884121,64.7173229 317.147159,63.6469021 C314.410198,62.5764813 312.043902,61.0976327 310.048201,59.2103118 C308.052499,57.3229909 306.470217,55.055423 305.301306,52.40754 C304.132396,49.759657 303.547949,46.8301282 303.547949,43.6188658 Z M313.850979,44.1313131 C313.850979,45.7340147 314.095993,47.3366923 314.586028,48.9393939 C315.076062,50.5420956 315.811103,51.9730577 316.791173,53.2323232 C317.771242,54.4915888 319.010723,55.5218815 320.509652,56.3232323 C322.008582,57.1245831 323.79574,57.5252525 325.871181,57.5252525 C327.946622,57.5252525 329.733781,57.1245831 331.23271,56.3232323 C332.73164,55.5218815 333.971121,54.4915888 334.95119,53.2323232 C335.931259,51.9730577 336.6663,50.5420956 337.156335,48.9393939 C337.64637,47.3366923 337.891383,45.7340147 337.891383,44.1313131 C337.891383,42.5286115 337.64637,40.9402436 337.156335,39.3661616 C336.6663,37.7920797 335.931259,36.3754272 334.95119,35.1161616 C333.971121,33.8568961 332.73164,32.840913 331.23271,32.0681818 C329.733781,31.2954507 327.946622,30.9090909 325.871181,30.9090909 C323.79574,30.9090909 322.008582,31.2954507 320.509652,32.0681818 C319.010723,32.840913 317.771242,33.8568961 316.791173,35.1161616 C315.811103,36.3754272 315.076062,37.7920797 314.586028,39.3661616 C314.095993,40.9402436 313.850979,42.5286115 313.850979,44.1313131 Z M351.628757,0 L361.88813,0 L361.88813,40.7146865 L362.144615,40.7146865 L377.704664,23.5088985 L390.87086,23.5088985 L373.087946,41.9923441 L391.982292,64.3939394 L378.388623,64.3939394 L362.144615,43.4403559 L361.88813,43.4403559 L361.88813,64.3939394 L351.628757,64.3939394 L351.628757,0 Z M418.187612,34.3231528 C417.290191,33.1400561 416.056256,32.1119042 414.485769,31.2386662 C412.915283,30.3654282 411.2046,29.9288157 409.35367,29.9288157 C407.727094,29.9288157 406.240763,30.2668383 404.894632,30.9428935 C403.548501,31.6189487 402.875445,32.7456906 402.875445,34.3231528 C402.875445,35.900615 403.618611,37.0132726 405.104964,37.6611588 C406.591317,38.3090451 408.764726,38.9710059 411.625255,39.6470612 C413.139652,39.9850888 414.668049,40.4357855 416.210492,40.9991649 C417.752934,41.5625442 419.155133,42.3090107 420.417131,43.2385867 C421.679129,44.1681626 422.702734,45.323073 423.487977,46.7033524 C424.273221,48.0836319 424.665836,49.7596603 424.665836,51.7314881 C424.665836,54.2103573 424.203111,56.308914 423.277645,58.027221 C422.35218,59.7455281 421.118245,61.1398711 419.575803,62.2102919 C418.033361,63.2807127 416.238546,64.0553477 414.191305,64.5342202 C412.144063,65.0130926 410.026743,65.2525253 407.839279,65.2525253 C404.698306,65.2525253 401.641512,64.6750701 398.668806,63.5201424 C395.696099,62.3652147 393.228229,60.7173547 391.265121,58.5765132 L397.911611,52.3230335 C399.033387,53.7878198 400.491674,54.9990673 402.286516,55.9568122 C404.081357,56.9145571 406.07248,57.3934224 408.259943,57.3934224 C408.989098,57.3934224 409.732263,57.3089168 410.489462,57.139903 C411.246661,56.9708892 411.947761,56.703288 412.592782,56.3370914 C413.237803,55.9708948 413.756617,55.4779452 414.149238,54.8582279 C414.54186,54.2385106 414.738168,53.4779599 414.738168,52.5765529 C414.738168,50.8864148 413.966958,49.6751674 412.424516,48.9427742 C410.882074,48.210381 408.568446,47.4779988 405.483561,46.7456057 C403.969164,46.407578 402.496855,45.9709656 401.06659,45.4357552 C399.636326,44.9005448 398.360325,44.1963312 397.238548,43.3230931 C396.116772,42.4498551 395.219365,41.3653661 394.546299,40.0695936 C393.873234,38.773821 393.536706,37.1682139 393.536706,35.2527241 C393.536706,32.9992066 393.999432,31.055577 394.924897,29.4217768 C395.850362,27.7879767 397.070275,26.4499707 398.584673,25.4077189 C400.099071,24.3654671 401.809754,23.5908321 403.716773,23.0837907 C405.623792,22.5767492 407.586871,22.3232323 409.606068,22.3232323 C412.522686,22.3232323 415.36915,22.8302661 418.145546,23.844349 C420.921941,24.8584319 423.123394,26.4077019 424.749969,28.4922055 L418.187612,34.3231528 Z" id="ZipBooks" fill="#4F5664"></path>
            <g id="Group-5" transform="translate(0.000000, 3.000000)">
                <path d="M0,29.8695184 C0,28.2847272 1.28336801,27 2.87575242,27 L8.12424758,27 C9.71248178,27 11,28.2913227 11,29.8695184 L11,61 L0,61 L0,29.8695184 Z" id="Rectangle-13" fill="#FF194A"></path>
                <path d="M19,15.8766711 C19,14.2879295 20.283368,13 21.8757524,13 L27.1242476,13 C28.7124818,13 30,14.283884 30,15.8766711 L30,61 L19,61 L19,15.8766711 Z" id="Rectangle-13" fill="#0064FF"></path>
                <path d="M39,20.8713648 C39,19.2855538 40.283368,18 41.8757524,18 L47.1242476,18 C48.7124818,18 50,19.2869046 50,20.8713648 L50,61 L39,61 L39,20.8713648 Z" id="Rectangle-13" fill="#00D478"></path>
                <path d="M58,2.88069734 C58,1.28973213 59.283368,0 60.8757524,0 L66.1242476,0 C67.7124818,0 69,1.28814596 69,2.88069734 L69,61 L58,61 L58,2.88069734 Z" id="Rectangle-13" fill="#7953F5"></path>
            </g>
        </g>
    </g>
</svg>